<?xml version="1.0" standalone="no"?>
<svg xmlns:xlink="http://www.w3.org/1999/xlink" id="wave" style="transform:rotate(0deg); transition: 0.3s" viewBox="0 0 1440 230" version="1.1" xmlns="http://www.w3.org/2000/svg"><defs><linearGradient id="sw-gradient-0" x1="0" x2="0" y1="1" y2="0"><stop stop-color="rgba(117, 26, 214, 1)" offset="0%"/><stop stop-color="rgba(82, 18, 150, 1)" offset="100%"/></linearGradient></defs><path style="transform:translate(0, 0px); opacity:1" fill="url(#sw-gradient-0)" d="M0,46L24,61.3C48,77,96,107,144,103.5C192,100,240,61,288,72.8C336,84,384,146,432,149.5C480,153,528,100,576,76.7C624,54,672,61,720,69C768,77,816,84,864,95.8C912,107,960,123,1008,111.2C1056,100,1104,61,1152,69C1200,77,1248,130,1296,149.5C1344,169,1392,153,1440,149.5C1488,146,1536,153,1584,145.7C1632,138,1680,115,1728,92C1776,69,1824,46,1872,30.7C1920,15,1968,8,2016,34.5C2064,61,2112,123,2160,134.2C2208,146,2256,107,2304,80.5C2352,54,2400,38,2448,34.5C2496,31,2544,38,2592,57.5C2640,77,2688,107,2736,99.7C2784,92,2832,46,2880,53.7C2928,61,2976,123,3024,153.3C3072,184,3120,184,3168,161C3216,138,3264,92,3312,65.2C3360,38,3408,31,3432,26.8L3456,23L3456,230L3432,230C3408,230,3360,230,3312,230C3264,230,3216,230,3168,230C3120,230,3072,230,3024,230C2976,230,2928,230,2880,230C2832,230,2784,230,2736,230C2688,230,2640,230,2592,230C2544,230,2496,230,2448,230C2400,230,2352,230,2304,230C2256,230,2208,230,2160,230C2112,230,2064,230,2016,230C1968,230,1920,230,1872,230C1824,230,1776,230,1728,230C1680,230,1632,230,1584,230C1536,230,1488,230,1440,230C1392,230,1344,230,1296,230C1248,230,1200,230,1152,230C1104,230,1056,230,1008,230C960,230,912,230,864,230C816,230,768,230,720,230C672,230,624,230,576,230C528,230,480,230,432,230C384,230,336,230,288,230C240,230,192,230,144,230C96,230,48,230,24,230L0,230Z"/><defs><linearGradient id="sw-gradient-1" x1="0" x2="0" y1="1" y2="0"><stop stop-color="rgba(40, 9, 74, 1)" offset="0%"/><stop stop-color="rgba(47, 10, 87, 1)" offset="100%"/></linearGradient></defs><path style="transform:translate(0, 50px); opacity:0.9" fill="url(#sw-gradient-1)" d="M0,46L24,72.8C48,100,96,153,144,157.2C192,161,240,115,288,84.3C336,54,384,38,432,34.5C480,31,528,38,576,69C624,100,672,153,720,176.3C768,199,816,192,864,168.7C912,146,960,107,1008,107.3C1056,107,1104,146,1152,164.8C1200,184,1248,184,1296,187.8C1344,192,1392,199,1440,195.5C1488,192,1536,176,1584,149.5C1632,123,1680,84,1728,88.2C1776,92,1824,138,1872,134.2C1920,130,1968,77,2016,57.5C2064,38,2112,54,2160,80.5C2208,107,2256,146,2304,138C2352,130,2400,77,2448,76.7C2496,77,2544,130,2592,145.7C2640,161,2688,138,2736,130.3C2784,123,2832,130,2880,126.5C2928,123,2976,107,3024,103.5C3072,100,3120,107,3168,122.7C3216,138,3264,161,3312,168.7C3360,176,3408,169,3432,164.8L3456,161L3456,230L3432,230C3408,230,3360,230,3312,230C3264,230,3216,230,3168,230C3120,230,3072,230,3024,230C2976,230,2928,230,2880,230C2832,230,2784,230,2736,230C2688,230,2640,230,2592,230C2544,230,2496,230,2448,230C2400,230,2352,230,2304,230C2256,230,2208,230,2160,230C2112,230,2064,230,2016,230C1968,230,1920,230,1872,230C1824,230,1776,230,1728,230C1680,230,1632,230,1584,230C1536,230,1488,230,1440,230C1392,230,1344,230,1296,230C1248,230,1200,230,1152,230C1104,230,1056,230,1008,230C960,230,912,230,864,230C816,230,768,230,720,230C672,230,624,230,576,230C528,230,480,230,432,230C384,230,336,230,288,230C240,230,192,230,144,230C96,230,48,230,24,230L0,230Z"/></svg>