<?xml version="1.0" encoding="UTF-8" standalone="no"?>
<!-- Created with Inkscape (http://www.inkscape.org/) -->

<svg
   xmlns:dc="http://purl.org/dc/elements/1.1/"
   xmlns:cc="http://creativecommons.org/ns#"
   xmlns:rdf="http://www.w3.org/1999/02/22-rdf-syntax-ns#"
   xmlns:svg="http://www.w3.org/2000/svg"
   xmlns="http://www.w3.org/2000/svg"
   xmlns:sodipodi="http://sodipodi.sourceforge.net/DTD/sodipodi-0.dtd"
   xmlns:inkscape="http://www.inkscape.org/namespaces/inkscape"
   width="1000"
   height="366.70001"
   viewBox="0 0 264.58333 97.022714"
   version="1.1"
   id="svg2319"
   sodipodi:docname="Pokémon_(Print).svg"
   inkscape:version="0.92.3 (2405546, 2018-03-11)">
  <defs
     id="defs2313" />
  <sodipodi:namedview
     id="base"
     pagecolor="#ffffff"
     bordercolor="#666666"
     borderopacity="1.0"
     inkscape:pageopacity="0.0"
     inkscape:pageshadow="2"
     inkscape:zoom="0.7"
     inkscape:cx="483.88053"
     inkscape:cy="193.32054"
     inkscape:document-units="px"
     inkscape:current-layer="svg2319"
     showgrid="false"
     units="px"
     inkscape:window-width="1360"
     inkscape:window-height="706"
     inkscape:window-x="-8"
     inkscape:window-y="-8"
     inkscape:window-maximized="1" />
  <metadata
     id="metadata2316">
    <rdf:RDF>
      <cc:Work
         rdf:about="">
        <dc:format>image/svg+xml</dc:format>
        <dc:type
           rdf:resource="http://purl.org/dc/dcmitype/StillImage" />
        <dc:title />
      </cc:Work>
    </rdf:RDF>
  </metadata>
  <path
     style="stroke-width:0.98187095"
     d="M 146.8321,4.8570388e-5 142.41479,2.2841486 124.24223,23.123234 l 3.19412,3.77496 -3.46904,1.847961 -14.88801,-13.210071 -0.005,0.009 -4.42557,2.400381 -0.85061,1.612819 0.0755,-3.61788 -24.203728,7.73237 5.3e-4,0.0129 -4.461235,2.39365 0.634071,12.943931 4.174945,-1.055751 0.260451,2.87374 c -3.525967,-0.500948 -7.291943,0.0021 -10.86757,1.51257 -1.554303,0.67749 -3.003418,1.509761 -4.338762,2.477882 0.907246,-4.014862 0.692076,-7.972851 -0.837676,-11.502682 -1.806652,-4.170968 -4.985698,-7.617849 -8.883722,-9.792689 -2.732548,-1.8204 -5.989817,-2.9545 -9.397891,-3.34037 -8.375362,-1.46397 -18.432381,0.039 -28.330616,4.25608 -3.638819,1.55233 -7.033018,3.313771 -10.094493,5.263769 l -3.869537,2.454111 0.0026,0.005 L 0,35.894564 l 11.808083,19.932669 4.442115,-1.90686 19.005071,43.102339 18.055259,-5.82446 4.322742,-2.90525 0.121438,-0.0387 -1.127064,-4.349618 -2.664957,-10.2304 c 1.41824,2.76756 3.539842,4.800748 3.539842,4.800748 1.918575,1.875372 4.270086,3.24009 6.893647,4.005972 5.045834,1.452178 10.740827,0.5057 15.629562,-2.61174 1.085281,-0.68685 2.495756,-1.7228 3.550692,-2.64583 l 0.605132,6.672469 17.009848,-2.51614 4.54288,-2.38125 0.008,-0.0011 -0.0186,-10.752338 31.25292,15.48126 4.44005,-2.397802 -0.0227,-0.01191 v -14.69525 l 0.007,0.0362 c 3.65452,-0.543951 6.79132,-1.89639 9.87537,-3.750169 0.0533,-0.0317 0.1077,-0.0677 0.16123,-0.100251 l -1.34255,8.162309 19.26035,3.082501 3.69901,-1.99264 2.35748,4.355819 3.48559,-1.91566 0.69401,5.741781 21.88036,3.88039 4.37183,-2.404512 -0.17518,-0.0512 0.18914,0.0336 -0.84286,-5.346438 c 1.50825,-0.170961 3.0791,-0.374021 4.43075,-0.855261 0.5392,-0.184499 1.29392,-0.486169 2.10272,-0.841809 l -0.86662,7.698259 14.50509,2.088761 0.13952,5.907659 15.05027,4.79662 4.47932,-2.374029 -0.0129,-0.01 0.0336,0.01029 19.70684,-59.39803 -20.52126,-4.987819 -0.008,0.0315 -3.21532,1.7136 -0.52761,-2.607609 -24.11382,-5.30769 v -0.001 l -4.45347,2.40349 0.14934,12.21219 c -2.50721,-0.0584 -5.09198,0.375591 -7.60265,1.323951 -1.76344,0.674539 -3.4004,1.561028 -4.88499,2.639129 l -3.63802,-22.964019 h -15.95668 l -0.004,-0.0165 -0.0305,0.0165 h -0.046 l -0.005,0.0269 -4.40595,2.37039 -0.0424,0.2434 h -12.86798 l -0.0238,0.145731 0.002,-0.16744 -4.38009,2.410199 -0.91364,5.555739 c -3.91951,-3.672931 -9.03021,-5.682431 -14.6012,-5.799011 l 14.33144,-7.70291 -9.9932,-14.91332542961 -0.0109,0.0123999996 z M 146.06109,6.6239526 l 5.28443,7.1783814 -15.10814,7.48948 -1.04335,-1.58544 z m 37.89439,15.6528114 h 8.16798 l 3.38947,22.031249 c -4.31337,4.913291 -6.40853,11.518291 -4.96715,17.560721 1.11442,4.684509 3.99313,8.457028 8.11993,10.660348 0.41533,0.20914 0.84553,0.4161 1.28934,0.594792 l 0.43201,2.856158 -12.04476,-1.839679 -3.20653,-21.243179 -4.53514,11.718689 -6.79081,-14.64668 h -0.0765 l -2.68355,16.961779 -11.3182,-1.969389 1.59164,-9.465069 c 0.42711,-0.40158 0.84753,-0.804241 1.2609,-1.229381 l 3.66852,-3.77756 -3.56568,-3.192568 3.78841,-22.541301 h 11.41896 l 2.85822,15.60423 z m -73.2866,0.30025 10.59109,10.086728 -14.81152,15.604252 13.91545,5.504059 c 1.5543,2.945611 3.9253,5.448641 6.90036,7.292591 2.87591,1.775219 6.17115,2.824679 9.6568,3.16932 l 0.002,9.979768 -35.40152,-17.705919 0.0315,9.349311 -0.25736,0.19431 0.2584,0.128159 0.03,8.87957 -9.157602,1.249021 -0.638207,-7.64709 c 2.82779,-4.84849 3.86166,-10.56186 2.385907,-15.801121 -0.81004,-2.879831 -2.306339,-5.3795 -4.339791,-7.38252 l -1.313619,-15.59132 -4.112417,1.06661 -0.181385,-3.942408 14.706103,-4.379061 0.328663,5.5299 -0.02016,0.0382 0.02222,-0.007 0.571023,9.606669 z m -71.259342,1.81074 c 2.004441,0.004 3.918016,0.16764 5.718521,0.48576 2.547956,0.28671 5.24492,1.038 7.6073,2.606041 3.241154,1.82531 5.720361,4.423457 7.149965,7.732368 3.486621,8.05723 -2.337697,19.65225 -13.865844,26.76688 l 6.027547,23.12783 -9.75601,3.116609 -20.018966,-44.708458 c -1.088891,0.572429 -3.100088,1.5323 -4.946991,2.43758 l -7.249183,-12.24579 c 2.882776,-1.841011 6.044287,-3.47299 9.407195,-4.89376 7.078309,-3.01042 13.913135,-4.43684 19.926466,-4.42506 z m 102.363432,2.813779 c 5.66436,-0.0674 10.53651,2.24971 13.79969,6.25389 l -14.74175,15.69107 c 0.99955,0.188521 2.58922,-0.0736 3.76256,-0.354499 2.11388,-0.515469 3.66511,-1.397471 4.94441,-2.45981 -0.0131,0.0173 -0.0272,0.034 -0.0393,0.0517 0.0677,-0.0619 0.13389,-0.116178 0.2036,-0.17313 l -0.007,-0.008 c 0.77986,-0.667883 1.45893,-1.402411 2.10529,-2.16059 l 5.89113,5.299937 1.78491,1.61231 c -0.77371,0.800232 -1.58635,1.555613 -2.40916,2.245871 -3.39726,2.81011 -7.26982,4.642019 -12.38635,5.8782 -1.11835,0.25627 -2.21441,0.442661 -3.28662,0.536919 -8.12105,0.798261 -14.93411,-2.93048 -17.51937,-8.978799 -0.32205,-0.732481 -0.57056,-1.474119 -0.7581,-2.2655 -1.19593,-5.093949 -0.17455,-9.64655 2.34198,-13.213679 0.72462,-1.040791 1.58459,-1.989531 2.55075,-2.84376 2.37025,-2.114941 5.39621,-3.652591 8.83669,-4.479329 1.69228,-0.408091 3.34082,-0.613651 4.92684,-0.632521 z m 78.70127,0.602031 15.73033,3.16158 5.28961,25.083259 5.425,-22.48807 11.96673,2.644291 -16.85481,51.03676 -7.01096,-2.088761 -1.37408,-1.06454 -0.71365,-30.19614 -4.20957,23.803761 -9.1302,-1.45728 0.6537,-6.853351 c 5.96192,-5.037968 9.1228,-12.985401 7.39078,-20.18742 -0.76094,-3.189118 -2.40054,-5.966018 -4.71187,-8.077039 l 0.77051,-8.08273 -3.452,-0.91881 z m -9.09662,13.032308 c 2.96504,-0.0474 5.69953,0.787173 7.86517,2.344053 1.27447,0.903319 2.33209,2.053119 3.1657,3.389458 0.63232,1.05551 1.12308,2.218661 1.42059,3.4892 1.0614,4.39682 -0.20226,9.106051 -2.97605,12.900002 -1.18806,1.617149 -2.63604,3.070188 -4.30621,4.260217 -1.24796,0.88859 -2.62173,1.64356 -4.09846,2.188491 -2.91518,1.110512 -5.81465,1.34139 -8.39796,0.82787 -1.80075,-0.355449 -3.4424,-1.057539 -4.87103,-2.07378 -2.27205,-1.64365 -3.94501,-4.07072 -4.6824,-7.11844 -0.86012,-3.661399 -0.068,-7.570959 1.9017,-10.995729 0.98186,-1.67409 2.24159,-3.247371 3.73208,-4.60335 1.6623,-1.49047 3.5896,-2.710929 5.73402,-3.535702 1.87157,-0.698108 3.73382,-1.043828 5.51285,-1.07229 z m -93.17018,1.363742 c -0.19637,2.04819 -0.0952,4.19 0.33383,6.361899 l -4.92425,-1.90014 5.3e-4,-5.29e-4 z m -40.289595,2.07585 c 2.792299,0.027 5.381768,0.822618 7.499295,2.26137 2.325068,1.57689 4.098089,3.947818 4.925806,6.91896 0.104079,0.315179 0.172651,0.64648 0.242361,0.970489 0.23663,1.132102 0.33197,2.292601 0.286806,3.436479 -0.111935,3.44342 -1.376418,6.893762 -3.493331,9.812862 -2.013821,2.822879 -4.827101,5.152689 -8.136988,6.577388 -8.463727,3.585792 -16.927275,-6.9e-5 -19.188523,-8.035697 -2.190554,-7.76954 2.90625,-17.018471 11.106833,-20.551241 2.291321,-0.967391 4.585946,-1.411621 6.757741,-1.39061 z m 5.636872,32.705551 0.0016,0.015 c -0.02307,0.008 -0.04648,0.01651 -0.07028,0.02479 0.02273,-0.01349 0.04605,-0.02619 0.06873,-0.0398 z"
     id="polygon16"
     inkscape:connector-curvature="0" />
  <path
     style="stroke-width:0.98187095"
     id="path164"
     d="m 52.173733,43.653103 c -0.882702,-4.73655 -7.076344,-7.347339 -13.216964,-3.99818 l 1.582775,5.420911 2.490025,8.011091 1.136023,3.648617 c 4.606939,-2.962299 9.237443,-6.521579 8.008141,-13.082439 z m -6.099384,7.283511 c -0.670618,-2.188581 -2.14146,-6.91433 -2.14146,-6.91433 0.0069,0.02159 -0.28965,-1.01132 -0.64116,-2.193499 1.301962,-0.232701 2.552862,-0.138441 3.581863,0.356417 0.575376,0.273953 1.586704,0.913141 1.807626,2.124771 0.508611,2.723711 -0.409441,4.667822 -2.606869,6.626641 z"
     inkscape:connector-curvature="0" />
  <path
     style="stroke-width:0.98187095"
     id="path170"
     d="m 145.09309,36.137865 c -3.43262,-3.148862 -8.76811,-2.904382 -11.8993,0.525298 -3.14983,3.42378 -2.9024,8.762212 0.53512,11.89831 0.27984,0.27002 0.58226,0.49094 0.88664,0.70793 l 11.07255,-12.53947 c -0.19539,-0.204229 -0.39177,-0.407479 -0.59501,-0.592068 z m -10.45496,8.820139 c -1.08301,-1.98828 -0.86405,-4.51267 0.75506,-6.28201 1.55725,-1.69667 3.94319,-2.179751 5.97763,-1.39523 z"
     inkscape:connector-curvature="0" />
  <path
     style="stroke-width:0.26458377"
     id="path174"
     d="m 216.7461,47.419563 c 0.0933,0.372131 0.14139,0.740331 0.12961,1.132091 -0.10212,2.34274 -2.30445,4.15136 -4.92997,4.02862 -2.62356,-0.0903 -4.68451,-2.08157 -4.58141,-4.41842 0.0884,-2.190559 2.04032,-3.924541 4.45082,-4.035491 -0.45756,-0.1031 -0.93573,-0.157099 -1.43452,-0.17477 -4.3919,-0.1895 -7.98162,2.921071 -8.13283,6.79356 -0.16888,4.141531 3.15082,7.518181 7.47301,7.705731 4.39781,0.175749 7.98557,-2.94562 8.16034,-7.067521 0.0511,-1.428621 -0.37115,-2.798318 -1.13505,-3.9638"
     inkscape:connector-curvature="0" />
  <path
     style="stroke-width:0.26458377"
     id="path183"
     d="m 83.511124,52.149223 c 0,2.352572 -2.139495,4.23776 -4.760108,4.23776 -2.627487,0 -4.75913,-1.88617 -4.75913,-4.23776 0,-2.19251 1.875372,-4.00013 4.278996,-4.210249 -0.460497,-0.0835 -0.939652,-0.131572 -1.434516,-0.131572 -4.390927,0 -7.854966,3.256863 -7.854966,7.135252 0,4.138589 3.465021,7.384651 7.784272,7.384651 4.394854,0 7.85595,-3.248023 7.85595,-7.384651 0,-1.432549 -0.473265,-2.782631 -1.287234,-3.8941 0.109971,0.334809 0.176736,0.705958 0.176736,1.100669"
     inkscape:connector-curvature="0" />
  <g
     transform="matrix(0.92240841,0,0,0.92240841,14.525251,6.3143156)"
     style="font-style:normal;font-variant:normal;font-weight:normal;font-stretch:normal;font-size:4px;line-height:125%;font-family:Arial;-inkscape-font-specification:Arial;letter-spacing:0px;word-spacing:0px;fill-opacity:1;stroke:none"
     id="flowRoot3115" />
</svg>
