<?xml version="1.0" encoding="utf-8"?>
<!-- Generator: Adobe Illustrator 22.1.0, SVG Export Plug-In . SVG Version: 6.00 Build 0)  -->
<svg version="1.1" id="Pokeball" xmlns="http://www.w3.org/2000/svg" xmlns:xlink="http://www.w3.org/1999/xlink" x="0px" y="0px"
	 viewBox="0 0 428 111.2" style="enable-background:new 0 0 428 111.2;" xml:space="preserve">
<style type="text/css">
	.st0{fill:#FFFFFF;}
	.st1{fill:#CE2121;}
	.st2{fill:none;stroke:#000000;stroke-width:5;stroke-miterlimit:10;}
	.st3{fill:#FFFFFF;stroke:#000000;stroke-width:5;stroke-miterlimit:10;}
	.st4{enable-background:new    ;}
</style>
<title>pokeball</title>
<g>
	<path class="st0" d="M59.7,97.7c23.2,0,42.1-18.8,42.1-42.1H17.7C17.7,78.8,36.5,97.7,59.7,97.7z"/>
	<path class="st1" d="M60,13.9c-23.1,0-41.8,18.7-41.8,41.8h83.6C101.8,32.6,83.1,13.9,60,13.9z"/>
	<circle class="st2" cx="60" cy="55.9" r="42.3"/>
	<line class="st2" x1="17.7" y1="55.9" x2="102.3" y2="55.9"/>
	<circle class="st3" cx="60" cy="55.9" r="11.5"/>
</g>
<g class="st4">
	<path d="M126.7,34.5l-5.4-0.8v-3.4h9.2c1.7,0,3.3-0.1,4.9-0.2c2.5-0.2,4.8-0.3,7-0.3c6.7,0,11.4,1.3,14.1,3.7
		c2.8,2.4,4.1,6.1,4.1,11c0,3.7-0.9,6.9-2.6,9.6c-1.7,2.7-4.1,4.8-7.1,6.2c-3,1.4-6.5,2.1-10.4,2.1c-1.3,0-2.7,0-4.1-0.1
		c-1.4-0.1-2.2-0.1-2.6-0.2v15.2l9.5,0.8v3.4H121v-3.4l5.7-0.7V34.5z M140.7,58.7c3.6,0,6.6-1.1,8.9-3.3c2.3-2.2,3.4-5.8,3.4-10.8
		c0-4-1-6.8-3-8.5c-2-1.7-5.1-2.6-9.2-2.6c-1.5,0-3,0.1-4.7,0.3c-1,0.1-1.7,0.1-2,0.1v24.5C135.4,58.6,137.6,58.7,140.7,58.7z"/>
	<path d="M168.1,51.4c1.7-3,3.9-5.3,6.7-6.9s5.8-2.4,8.9-2.4c5.8,0,10.2,1.8,13.1,5.5c2.9,3.7,4.4,8.5,4.4,14.5
		c0,4.2-0.9,7.8-2.6,10.8c-1.7,3-3.9,5.3-6.7,6.9c-2.8,1.6-5.8,2.3-8.9,2.3c-5.8,0-10.2-1.8-13.1-5.5c-2.9-3.7-4.4-8.5-4.4-14.5
		C165.5,58.1,166.4,54.5,168.1,51.4z M190.7,74.3c1.7-2.6,2.6-6.5,2.6-11.7c0-5.1-0.8-9.1-2.3-12.1c-1.6-3-4.1-4.5-7.5-4.5
		c-3.2,0-5.6,1.3-7.3,3.9s-2.6,6.5-2.6,11.7c0,5.1,0.8,9.2,2.4,12.1c1.6,3,4.1,4.5,7.5,4.5C186.6,78.3,189,77,190.7,74.3z"/>
	<path d="M211.1,30l-5.4-0.8v-3l11-1.3h0.1l1.5,1v33.7l-0.1,4.1l15.9-16.5l-5.2-1v-3.2h16.7v3.2l-5.4,1L230,57.2l13.1,20.3l4.3,0.6
		v3.4h-16.8v-3.4l4.3-0.6l-9.7-16l-7.1,7l0.1,3.5v5.4l4.9,0.6v3.4h-16.4v-3.4l4.3-0.6V30z"/>
	<path d="M253.1,76.8c-2.9-3.6-4.4-8.5-4.4-14.6c0-4,0.8-7.5,2.3-10.6c1.5-3,3.6-5.4,6.4-7c2.7-1.7,5.9-2.5,9.3-2.5
		c4.3,0,7.6,1.2,10,3.6c2.4,2.4,3.6,5.8,3.8,10.2c0,2.8-0.2,4.9-0.5,6.4h-23.7c0.1,4.6,1.1,8.2,3.2,11c2,2.8,4.9,4.2,8.6,4.2
		c1.8,0,3.8-0.3,5.8-1c2-0.7,3.6-1.5,4.7-2.4l1.3,3c-1.3,1.4-3.3,2.6-5.9,3.6s-5.3,1.5-8,1.5C260.3,82.2,256,80.4,253.1,76.8z
		 M272.9,58.6c0.1-1,0.2-2,0.2-3c0-3-0.7-5.3-1.9-7.1c-1.2-1.7-3.1-2.6-5.8-2.6c-2.7,0-4.8,1-6.4,2.9c-1.6,1.9-2.5,5.2-2.7,9.7
		H272.9z"/>
	<path d="M293.7,80.1c-2.3-1.4-4.1-3.5-5.5-6.3c-1.4-2.9-2-6.4-2-10.6c0-3.9,0.8-7.5,2.4-10.7c1.6-3.2,3.9-5.8,6.9-7.6
		c3-1.9,6.6-2.8,10.7-2.8c2.3,0,4.5,0.3,6.4,0.8V30l-7-0.8v-3L318,25h0.2l1.5,1.1v51.9h4v3.2c-1.5,0.3-2.7,0.6-3.8,0.8
		c-1.1,0.2-2.2,0.3-3.4,0.3c-1.2,0-2-0.2-2.6-0.6c-0.5-0.4-0.8-1.3-0.8-2.6v-2.2c-1.3,1.6-3,2.9-5.1,3.9c-2.1,1.1-4.4,1.6-6.8,1.6
		C298.5,82.2,296,81.5,293.7,80.1z M309.1,76.1c1.6-0.8,2.7-1.7,3.5-2.8V48.1c-0.4-0.6-1.2-1-2.6-1.5c-1.4-0.4-2.8-0.7-4.3-0.7
		c-3.6,0-6.4,1.4-8.6,4.1c-2.1,2.7-3.2,7-3.2,12.7c0,5,0.9,8.6,2.8,11c1.9,2.4,4.3,3.6,7.3,3.6C305.8,77.3,307.5,76.9,309.1,76.1z"
		/>
	<path d="M333.5,76.8c-2.9-3.6-4.4-8.5-4.4-14.6c0-4,0.8-7.5,2.3-10.6c1.5-3,3.6-5.4,6.4-7c2.7-1.7,5.9-2.5,9.3-2.5
		c4.3,0,7.6,1.2,10,3.6c2.4,2.4,3.6,5.8,3.8,10.2c0,2.8-0.2,4.9-0.5,6.4h-23.7c0.1,4.6,1.1,8.2,3.2,11c2,2.8,4.9,4.2,8.6,4.2
		c1.8,0,3.8-0.3,5.8-1c2-0.7,3.6-1.5,4.7-2.4l1.3,3c-1.3,1.4-3.3,2.6-5.9,3.6s-5.3,1.5-8,1.5C340.6,82.2,336.4,80.4,333.5,76.8z
		 M353.2,58.6c0.1-1,0.2-2,0.2-3c0-3-0.7-5.3-1.9-7.1c-1.2-1.7-3.1-2.6-5.8-2.6c-2.7,0-4.8,1-6.4,2.9c-1.6,1.9-2.5,5.2-2.7,9.7
		H353.2z"/>
	<path d="M380.5,62.3l-11.7-15.1l-3.9-0.8v-3.2h17.5v3.2l-4.8,0.8l6.3,8.9l1.9,3l1.9-3l6.6-8.9l-5-0.8v-3.2h14.6v3.2l-4.1,0.8
		l-11.5,14.3l12.2,16l4,0.6v3.3h-17.7v-3.3l4.6-0.7l-6.3-9.3l-2.1-3.1l-1.9,3l-6.6,9.4l5.7,0.7v3.3H364v-3.3l4.6-0.7L380.5,62.3z"/>
</g>
</svg>
