<?xml version="1.0" encoding="UTF-8" standalone="no"?>
<!DOCTYPE svg PUBLIC "-//W3C//DTD SVG 20010904//EN"
              "http://www.w3.org/TR/2001/REC-SVG-20010904/DTD/svg10.dtd">
<svg xmlns="http://www.w3.org/2000/svg"
     width="14.2222in" height="14.2222in"
     viewBox="0 0 1024 1024">
  <path id="pkmn-go-gym-arena"
        fill="#000000" stroke="none" stroke-width="1"
        d="M 373.34,561.43
           C 393.65,618.40 448.06,659.18 512.00,659.18
             575.94,659.18 630.35,618.40 650.66,561.43
             650.66,561.43 908.38,561.43 908.38,561.43
             883.46,761.46 713.58,911.69 512.00,911.94
             310.37,911.76 140.41,761.51 115.49,561.43
             115.49,561.43 373.34,561.43 373.34,561.43 Z
           M 512.00,414.48
           C 458.14,414.48 414.48,458.14 414.48,512.00
             414.48,565.86 458.14,609.52 512.00,609.52
             565.86,609.52 609.52,565.86 609.52,512.00
             609.52,458.14 565.86,414.48 512.00,414.48 Z
           M 486.44,112.89
           C 486.44,112.89 486.44,138.55 486.44,138.55
             329.08,149.43 194.17,258.38 151.62,412.17
             151.62,412.17 125.03,412.17 125.03,412.17
             168.39,243.93 314.96,123.93 486.44,112.89
             486.44,112.89 486.44,112.89 486.44,112.89 Z
           M 898.77,412.17
           C 898.77,412.17 872.77,412.17 872.77,412.17
             830.18,258.24 695.07,149.25 537.56,138.53
             537.56,138.53 537.56,112.90 537.56,112.90
             708.96,124.02 855.42,244.00 898.77,412.17 Z
           M 680.32,473.71
           C 680.32,473.71 909.81,473.71 909.81,473.71
             910.65,482.09 911.24,490.56 911.54,499.09
             911.54,499.09 658.54,499.37 658.54,499.37
             651.99,423.30 588.35,364.87 512.00,364.82
             435.64,364.87 372.01,423.30 365.45,499.37
             365.45,499.37 112.65,499.02 112.65,499.02
             112.80,490.42 113.23,481.89 113.92,473.71
             113.92,473.71 343.53,473.71 343.53,473.71
             361.07,396.20 430.27,339.23 512.00,339.23
             593.67,339.30 662.79,396.25 680.32,473.71 Z" />
</svg>
