<?xml version="1.0" encoding="UTF-8" standalone="no"?>
<!DOCTYPE svg PUBLIC "-//W3C//DTD SVG 20010904//EN"
              "http://www.w3.org/TR/2001/REC-SVG-20010904/DTD/svg10.dtd">
<svg xmlns="http://www.w3.org/2000/svg"
     width="11.3778in" height="11.3778in"
     viewBox="0 0 1024 1024">
  <path id="pkmn-go-teamless"
        fill="#000000" stroke="none" stroke-width="1"
        d="M 512.00,96.80
           C 304.28,96.94 132.17,249.33 101.24,448.41
             101.24,448.41 312.51,448.80 312.51,448.80
             339.50,364.37 418.60,303.25 512.00,303.20
             605.25,303.31 684.24,364.33 711.33,448.61
             711.33,448.61 922.53,448.80 922.53,448.80
             891.82,249.60 719.75,97.06 512.00,96.80
             512.00,96.80 512.00,96.80 512.00,96.80 Z
           M 512.00,376.80
           C 436.89,376.80 376.00,437.69 376.00,512.80
             376.00,587.91 436.89,648.80 512.00,648.80
             512.00,648.80 512.00,648.80 512.00,648.80
             587.11,648.80 648.00,587.91 648.00,512.80
             648.00,512.80 648.00,512.80 648.00,512.80
             648.00,437.69 587.11,376.80 512.00,376.80
             512.00,376.80 512.00,376.80 512.00,376.80
             512.00,376.80 512.00,376.80 512.00,376.80 Z
           M 101.47,576.80
           C 132.18,776.00 304.25,928.54 512.00,928.80
             719.72,928.66 891.83,776.27 922.76,577.19
             922.76,577.19 711.49,576.80 711.49,576.80
             684.50,661.23 605.40,722.35 512.00,722.40
             418.75,722.29 339.76,661.27 312.67,576.99
             312.67,576.99 101.47,576.80 101.47,576.80
             101.47,576.80 101.47,576.80 101.47,576.80 Z" />
</svg>
