<svg width="50" height="50" viewBox="0 0 50 50" fill="none" xmlns="http://www.w3.org/2000/svg">
<g clip-path="url(#clip0)">
<path d="M42.4737 22.1747C41.8171 17.9719 38.1735 14.7461 33.7891 14.7461C32.1396 14.7461 30.5547 15.2024 29.18 16.0536C27.0886 12.5388 23.3234 10.3516 19.1406 10.3516C12.679 10.3516 7.42188 15.6087 7.42188 22.0703C7.42188 22.1104 7.42187 22.1519 7.42334 22.1919C3.27051 22.8914 0 26.512 0 30.8594C0 35.706 4.04014 39.6484 8.88672 39.6484H41.1133C45.9599 39.6484 50 35.706 50 30.8594C50 26.4749 46.6766 22.8313 42.4737 22.1747V22.1747Z" fill="white"/>
</g>
<defs>
<clipPath id="clip0">
<rect width="50" height="50" fill="white"/>
</clipPath>
</defs>
</svg>
