<svg width="49" height="49" viewBox="0 0 49 49" fill="none" xmlns="http://www.w3.org/2000/svg">
<g clip-path="url(#clip0)">
<path d="M48.2721 40.9422C46.4893 40.9422 45.5872 41.8256 44.7913 42.6055C44.0799 43.3027 43.5176 43.853 42.3288 43.853C41.14 43.853 40.5778 43.3027 39.8663 42.6055C39.0704 41.8256 38.1684 40.9422 36.3855 40.9422C34.6023 40.9422 33.7002 41.8256 32.9047 42.6055C32.1929 43.3027 31.631 43.853 30.4422 43.853C29.2534 43.853 28.6915 43.3027 27.9797 42.6055C27.1842 41.8256 26.2821 40.9422 24.4993 40.9422C22.7164 40.9422 21.8143 41.8256 21.0184 42.6055C20.307 43.3027 19.7451 43.853 18.5563 43.853C17.3679 43.853 16.8056 43.3027 16.0942 42.6055C15.2983 41.826 14.3962 40.9422 12.6134 40.9422C10.8305 40.9422 9.92845 41.8256 9.13255 42.6055C8.42113 43.3027 7.85925 43.853 6.67043 43.853C5.48162 43.853 4.91974 43.3027 4.20832 42.6055C3.41241 41.8256 2.51034 40.9422 0.727867 40.9422C0.325615 40.9422 0 41.2679 0 41.6697C0 42.0716 0.325615 42.3976 0.727867 42.3976C1.91631 42.3976 2.47819 42.9483 3.18961 43.6451C3.98551 44.4246 4.88759 45.3083 6.67043 45.3083C8.45328 45.3083 9.35535 44.4249 10.1513 43.6451C10.8627 42.9483 11.4249 42.3976 12.6134 42.3976C13.8022 42.3976 14.3641 42.9483 15.0759 43.6451C15.8718 44.4249 16.7738 45.3083 18.5563 45.3083C20.3392 45.3083 21.2412 44.4249 22.0371 43.6451C22.7486 42.9479 23.3104 42.3976 24.4993 42.3976C25.6877 42.3976 26.2499 42.9483 26.9614 43.6451C27.7573 44.4249 28.6593 45.3083 30.4422 45.3083C32.225 45.3083 33.1271 44.4249 33.923 43.6451C34.6344 42.9483 35.1967 42.3976 36.3855 42.3976C37.5743 42.3976 38.1362 42.9483 38.848 43.6451C39.6439 44.4249 40.546 45.3083 42.3288 45.3083C44.1117 45.3083 45.0137 44.4249 45.8096 43.6451C46.5214 42.9483 47.0833 42.3976 48.2721 42.3976C48.6744 42.3976 49 42.0716 49 41.6697C49 41.2679 48.6744 40.9422 48.2721 40.9422Z" fill="white"/>
<path d="M48.2721 35.5746C46.4893 35.5746 45.5872 36.4584 44.7913 37.2379C44.0799 37.9351 43.5176 38.4854 42.3288 38.4854C41.14 38.4854 40.5778 37.9351 39.8663 37.2379C39.0704 36.4584 38.1684 35.5746 36.3855 35.5746C34.6023 35.5746 33.7002 36.4584 32.9047 37.2379C32.1929 37.9351 31.631 38.4854 30.4422 38.4854C29.2534 38.4854 28.6915 37.9351 27.9797 37.2379C27.1842 36.4584 26.2821 35.5746 24.4993 35.5746C22.7164 35.5746 21.8143 36.4584 21.0184 37.2379C20.307 37.9351 19.7451 38.4854 18.5563 38.4854C17.3679 38.4854 16.8056 37.9351 16.0942 37.2379C15.2983 36.4584 14.3962 35.5746 12.6134 35.5746C10.8305 35.5746 9.92845 36.4584 9.13255 37.2379C8.42113 37.9351 7.85925 38.4854 6.67043 38.4854C5.48162 38.4854 4.91974 37.9351 4.20832 37.2379C3.41241 36.4584 2.51034 35.5746 0.727867 35.5746C0.325615 35.5746 0 35.9006 0 36.3025C0 36.7044 0.325615 37.03 0.727867 37.03C1.91631 37.03 2.47819 37.5807 3.18961 38.2775C3.98551 39.0573 4.88759 39.9411 6.67043 39.9411C8.45328 39.9411 9.35535 39.0573 10.1513 38.2779C10.8627 37.5807 11.4249 37.03 12.6134 37.03C13.8022 37.03 14.3641 37.5807 15.0759 38.2779C15.8718 39.0573 16.7738 39.9411 18.5563 39.9411C20.3392 39.9411 21.2412 39.0573 22.0371 38.2775C22.7486 37.5807 23.3104 37.03 24.4993 37.03C25.6877 37.03 26.2499 37.5807 26.9614 38.2779C27.7573 39.0573 28.6593 39.9411 30.4422 39.9411C32.225 39.9411 33.1271 39.0573 33.923 38.2779C34.6344 37.5807 35.1967 37.03 36.3855 37.03C37.5743 37.03 38.1362 37.5807 38.848 38.2779C39.6439 39.0573 40.546 39.9411 42.3288 39.9411C44.1117 39.9411 45.0137 39.0573 45.8096 38.2779C46.5214 37.5807 47.0833 37.03 48.2721 37.03C48.6744 37.03 49 36.7044 49 36.3025C49 35.9006 48.6744 35.5746 48.2721 35.5746Z" fill="white"/>
<path d="M35.587 11.8597C35.587 12.2616 35.9126 12.5872 36.3145 12.5872H42.6466C43.2653 12.5872 43.7685 13.0908 43.7685 13.7095C43.7685 14.3278 43.2653 14.8314 42.6466 14.8314H27.5565C26.1352 14.8314 24.9789 15.9877 24.9789 17.4086C24.9789 18.8296 26.1352 19.9863 27.5565 19.9863H38.5493C39.1676 19.9863 39.6712 20.4898 39.6712 21.1081C39.6712 22.5295 40.8271 23.6858 42.2484 23.6858H46.4224C47.0411 23.6858 47.5446 24.189 47.5446 24.8077C47.5446 25.426 47.0411 25.9296 46.4224 25.9296H35.7507C34.3297 25.9296 33.1735 27.0859 33.1735 28.5068C33.1735 29.1255 32.6703 29.6287 32.0516 29.6287H11.6503C11.2485 29.6287 10.9229 29.9547 10.9229 30.3566C10.9229 30.7585 11.2485 31.0844 11.6503 31.0844H32.0516C33.4725 31.0844 34.6288 29.9282 34.6288 28.5068C34.6288 27.8881 35.1324 27.3849 35.7507 27.3849H46.4224C47.8437 27.3849 48.9996 26.2286 48.9996 24.8077C48.9996 23.3863 47.8437 22.23 46.4224 22.23H42.2484C41.6297 22.23 41.1265 21.7269 41.1265 21.1081C41.1265 19.6872 39.9702 18.5309 38.5489 18.5309H27.5565C26.9378 18.5309 26.4346 18.0273 26.4346 17.409C26.4346 16.7903 26.9378 16.2867 27.5565 16.2867H42.6466C44.0679 16.2867 45.2238 15.1304 45.2238 13.7095C45.2238 12.2885 44.0679 11.1322 42.6466 11.1322H36.3145C35.9126 11.1318 35.587 11.4578 35.587 11.8597Z" fill="white"/>
<path d="M2.57726 31.0844H8.80431C9.20657 31.0844 9.53218 30.7588 9.53218 30.357C9.53218 29.9551 9.20657 29.6291 8.80431 29.6291H2.57726C1.95892 29.6291 1.45536 29.1255 1.45536 28.5072C1.45536 27.8885 1.95892 27.3853 2.57726 27.3853H15.5462C16.9675 27.3853 18.1238 26.229 18.1238 24.8077C18.1238 23.3867 16.9675 22.2304 15.5462 22.2304H5.72836C5.10965 22.2304 4.60646 21.7269 4.60646 21.1085C4.60646 20.4898 5.11002 19.9866 5.72836 19.9866H12.2377C13.6586 19.9866 14.8149 18.83 14.8149 17.409C14.8149 15.988 13.6586 14.8317 12.2377 14.8317H10.2092C9.5905 14.8317 9.08731 14.3282 9.08731 13.7098C9.08731 13.0911 9.5905 12.5876 10.2092 12.5876H33.4684C33.8707 12.5876 34.1963 12.262 34.1963 11.8601C34.1963 11.4582 33.8707 11.1322 33.4684 11.1322H10.2092C8.78786 11.1322 7.63195 12.2885 7.63195 13.7098C7.63195 15.1308 8.78786 16.2871 10.2092 16.2871H12.2377C12.856 16.2871 13.3596 16.7907 13.3596 17.409C13.3596 18.0277 12.856 18.5309 12.2377 18.5309H5.72836C4.30739 18.5309 3.1511 19.6872 3.1511 21.1085C3.1511 22.5295 4.30739 23.6858 5.72836 23.6858H15.5462C16.1649 23.6858 16.6684 24.1893 16.6684 24.8077C16.6684 25.4264 16.1649 25.9296 15.5462 25.9296H2.57726C1.15629 25.9296 0 27.0859 0 28.5072C0 29.9282 1.15629 31.0844 2.57726 31.0844Z" fill="white"/>
<path d="M28.4361 27.2432C29.8575 27.2432 31.0137 26.0869 31.0137 24.666C31.0137 23.977 30.7457 23.3299 30.259 22.8431C29.7722 22.3564 29.1247 22.0883 28.4361 22.0883H23.4424C22.0218 22.0883 20.8658 23.2446 20.8658 24.666C20.8658 25.3546 21.1343 26.0017 21.6206 26.4884C22.1074 26.9752 22.7545 27.2432 23.4424 27.2432H28.4361ZM22.3216 24.666C22.3216 24.0473 22.8244 23.5437 23.4427 23.5437H28.4361C28.7363 23.5437 29.0178 23.6603 29.2298 23.8723C29.4417 24.0843 29.5584 24.3662 29.5584 24.666C29.5584 25.2847 29.0552 25.7879 28.4365 25.7879H23.4427C23.1437 25.7879 22.8622 25.6712 22.6502 25.4593C22.4382 25.2477 22.3216 24.9658 22.3216 24.666Z" fill="white"/>
<path d="M4.04272 8.88768H19.458C20.879 8.88768 22.0353 7.73139 22.0353 6.31005C22.0353 4.88871 20.879 3.73242 19.458 3.73242H4.04272C2.62138 3.73242 1.46509 4.88871 1.46509 6.31005C1.46509 7.73139 2.62138 8.88768 4.04272 8.88768ZM4.04272 5.18778H19.458C20.0767 5.18778 20.5799 5.69135 20.5799 6.31005C20.5799 6.92876 20.0764 7.43232 19.458 7.43232H4.04272C3.42401 7.43232 2.92082 6.92876 2.92082 6.31005C2.92082 5.69135 3.42401 5.18778 4.04272 5.18778Z" fill="white"/>
<path d="M26.4963 8.88768H36.0442C37.4656 8.88768 38.6218 7.73139 38.6218 6.31005C38.6218 4.88871 37.4656 3.73242 36.0442 3.73242H26.4963C25.075 3.73242 23.9187 4.88871 23.9187 6.31005C23.9187 7.73139 25.075 8.88768 26.4963 8.88768ZM26.4963 5.18778H36.0442C36.6629 5.18778 37.1661 5.69135 37.1661 6.31005C37.1661 6.92876 36.6629 7.43232 36.0442 7.43232H26.4963C25.8776 7.43232 25.3744 6.92876 25.3744 6.31005C25.3744 5.69135 25.8776 5.18778 26.4963 5.18778Z" fill="white"/>
</g>
<defs>
<clipPath id="clip0">
<rect width="49" height="49" fill="white"/>
</clipPath>
</defs>
</svg>
