<svg height="512pt" viewBox="0 -39 512 512" width="512pt" xmlns="http://www.w3.org/2000/svg"><path d="m504.394531 388.804688c-18.628906 0-28.054687 9.230468-36.371093 17.378906-7.433594 7.285156-13.308594 13.035156-25.730469 13.035156s-18.296875-5.75-25.730469-13.035156c-8.316406-8.148438-17.742188-17.378906-36.371094-17.378906-18.632812 0-28.058594 9.230468-36.371094 17.378906-7.4375 7.285156-13.308593 13.035156-25.730468 13.035156s-18.292969-5.75-25.730469-13.035156c-8.3125-8.148438-17.738281-17.378906-36.367187-17.378906-18.628907 0-28.054688 9.230468-36.371094 17.378906-7.433594 7.285156-13.304688 13.035156-25.726563 13.035156-12.417969 0-18.292969-5.75-25.726562-13.035156-8.316407-8.144532-17.742188-17.378906-36.371094-17.378906s-28.054687 9.230468-36.371094 17.378906c-7.433593 7.285156-13.304687 13.035156-25.726562 13.035156s-18.292969-5.75-25.726563-13.035156c-8.316406-8.148438-17.742187-17.378906-36.367187-17.378906-4.203125 0-7.605469 3.402343-7.605469 7.601562s3.402344 7.605469 7.605469 7.605469c12.417969 0 18.289062 5.753906 25.722656 13.035156 8.316406 8.144531 17.742187 17.378906 36.371094 17.378906 18.628906 0 28.054687-9.230469 36.371093-17.378906 7.433594-7.28125 13.308594-13.035156 25.726563-13.035156 12.421875 0 18.292969 5.753906 25.730469 13.035156 8.316406 8.148437 17.742187 17.378906 36.367187 17.378906 18.628907 0 28.054688-9.230469 36.371094-17.378906 7.433594-7.285156 13.304687-13.035156 25.726563-13.035156 12.417968 0 18.292968 5.753906 25.726562 13.035156 8.316406 8.148437 17.742188 17.378906 36.371094 17.378906s28.054687-9.230469 36.371094-17.378906c7.433593-7.28125 13.308593-13.035156 25.730468-13.035156s18.292969 5.753906 25.730469 13.035156c8.316406 8.148437 17.742187 17.378906 36.371094 17.378906 18.628906 0 28.054687-9.230469 36.371093-17.378906 7.4375-7.28125 13.308594-13.035156 25.730469-13.035156 4.203125 0 7.605469-3.40625 7.605469-7.605469s-3.402344-7.601562-7.605469-7.601562zm0 0"/><path d="m504.394531 332.71875c-18.628906 0-28.054687 9.234375-36.371093 17.378906-7.433594 7.285156-13.308594 13.035156-25.730469 13.035156s-18.296875-5.75-25.730469-13.035156c-8.316406-8.144531-17.742188-17.378906-36.371094-17.378906-18.632812 0-28.058594 9.234375-36.371094 17.378906-7.4375 7.285156-13.308593 13.035156-25.730468 13.035156s-18.292969-5.75-25.730469-13.035156c-8.3125-8.144531-17.738281-17.378906-36.367187-17.378906-18.628907 0-28.054688 9.234375-36.371094 17.378906-7.433594 7.285156-13.304688 13.035156-25.726563 13.035156-12.417969 0-18.292969-5.75-25.726562-13.035156-8.316407-8.144531-17.742188-17.378906-36.371094-17.378906s-28.054687 9.234375-36.371094 17.378906c-7.433593 7.285156-13.304687 13.035156-25.726562 13.035156s-18.292969-5.75-25.726563-13.035156c-8.316406-8.144531-17.742187-17.378906-36.367187-17.378906-4.203125 0-7.605469 3.40625-7.605469 7.605469s3.402344 7.601562 7.605469 7.601562c12.417969 0 18.289062 5.753907 25.722656 13.035157 8.316406 8.148437 17.742187 17.382812 36.371094 17.382812 18.628906 0 28.054687-9.234375 36.371093-17.378906 7.433594-7.285156 13.308594-13.039063 25.726563-13.039063 12.421875 0 18.292969 5.753907 25.730469 13.039063 8.316406 8.144531 17.742187 17.378906 36.367187 17.378906 18.628907 0 28.054688-9.234375 36.371094-17.382812 7.433594-7.28125 13.304687-13.035157 25.726563-13.035157 12.417968 0 18.292968 5.753907 25.726562 13.039063 8.316406 8.144531 17.742188 17.378906 36.371094 17.378906s28.054687-9.234375 36.371094-17.378906c7.433593-7.285156 13.308593-13.039063 25.730468-13.039063s18.292969 5.753907 25.730469 13.039063c8.316406 8.144531 17.742187 17.378906 36.371094 17.378906 18.628906 0 28.054687-9.234375 36.371093-17.378906 7.4375-7.285156 13.308594-13.039063 25.730469-13.039063 4.203125 0 7.605469-3.402343 7.605469-7.601562s-3.402344-7.605469-7.605469-7.605469zm0 0"/><path d="m371.847656 84.921875c0 4.199219 3.402344 7.601563 7.601563 7.601563h66.164062c6.464844 0 11.722657 5.261718 11.722657 11.726562 0 6.460938-5.257813 11.722656-11.722657 11.722656h-157.675781c-14.851562 0-26.933594 12.082032-26.933594 26.929688s12.082032 26.933594 26.933594 26.933594h114.863281c6.460938 0 11.722657 5.261718 11.722657 11.722656 0 14.851562 12.078124 26.933594 26.929687 26.933594h43.613281c6.464844 0 11.726563 5.257812 11.726563 11.722656 0 6.460937-5.261719 11.722656-11.726563 11.722656h-111.507812c-14.847656 0-26.929688 12.082031-26.929688 26.929688 0 6.464843-5.257812 11.722656-11.722656 11.722656h-213.171875c-4.199219 0-7.601563 3.40625-7.601563 7.605468 0 4.199219 3.402344 7.605469 7.601563 7.605469h213.171875c14.847656 0 26.929688-12.082031 26.929688-26.933593 0-6.464844 5.261718-11.722657 11.722656-11.722657h111.507812c14.851563 0 26.929688-12.082031 26.929688-26.929687 0-14.851563-12.078125-26.933594-26.929688-26.933594h-43.613281c-6.464844 0-11.722656-5.257812-11.722656-11.722656 0-14.847656-12.082031-26.929688-26.933594-26.929688h-114.859375c-6.464844 0-11.722656-5.261718-11.722656-11.722656 0-6.464844 5.257812-11.726562 11.722656-11.726562h157.675781c14.851563 0 26.929688-12.082032 26.929688-26.929688s-12.078125-26.929688-26.929688-26.929688h-66.164062c-4.199219-.003906-7.601563 3.402344-7.601563 7.601563zm0 0"/><path d="m26.929688 285.800781h65.066406c4.203125 0 7.605468-3.402343 7.605468-7.601562s-3.402343-7.605469-7.605468-7.605469h-65.066406c-6.460938 0-11.722657-5.261719-11.722657-11.722656 0-6.464844 5.261719-11.722656 11.722657-11.722656h135.511718c14.851563 0 26.933594-12.082032 26.933594-26.933594 0-14.847656-12.082031-26.929688-26.933594-26.929688h-102.585937c-6.464844 0-11.722657-5.261718-11.722657-11.722656 0-6.464844 5.261719-11.722656 11.722657-11.722656h68.015625c14.847656 0 26.929687-12.085938 26.929687-26.933594s-12.082031-26.929688-26.929687-26.929688h-21.195313c-6.464843 0-11.722656-5.261718-11.722656-11.722656 0-6.464844 5.257813-11.726562 11.722656-11.726562h243.035157c4.203124 0 7.605468-3.402344 7.605468-7.601563s-3.402344-7.605469-7.605468-7.605469h-243.035157c-14.851562 0-26.929687 12.082032-26.929687 26.933594 0 14.847656 12.078125 26.929688 26.929687 26.929688h21.195313c6.460937 0 11.722656 5.261718 11.722656 11.722656 0 6.464844-5.261719 11.722656-11.722656 11.722656h-68.015625c-14.847657 0-26.929688 12.082032-26.929688 26.933594 0 14.847656 12.082031 26.929688 26.929688 26.929688h102.585937c6.464844 0 11.726563 5.261718 11.726563 11.722656 0 6.464844-5.261719 11.722656-11.726563 11.722656h-135.511718c-14.847657 0-26.929688 12.082031-26.929688 26.933594 0 14.847656 12.082031 26.929687 26.929688 26.929687zm0 0"/><path d="m297.128906 245.664062c14.851563 0 26.933594-12.082031 26.933594-26.929687 0-7.199219-2.800781-13.960937-7.886719-19.046875-5.085937-5.085938-11.851562-7.886719-19.046875-7.886719h-52.179687c-14.84375 0-26.921875 12.082031-26.921875 26.933594 0 7.195313 2.804687 13.957031 7.886718 19.042969 5.085938 5.085937 11.847657 7.886718 19.035157 7.886718zm-63.890625-26.929687c0-6.464844 5.253907-11.726563 11.714844-11.726563h52.175781c3.136719 0 6.078125 1.21875 8.292969 3.433594s3.433594 5.160156 3.433594 8.292969c0 6.464844-5.257813 11.722656-11.722657 11.722656h-52.179687c-3.125 0-6.066406-1.21875-8.28125-3.433593-2.214844-2.210938-3.433594-5.15625-3.433594-8.289063zm0 0"/><path d="m42.242188 53.867188h161.074218c14.847656 0 26.929688-12.082032 26.929688-26.933594 0-14.851563-12.082032-26.933594-26.929688-26.933594h-161.074218c-14.851563 0-26.933594 12.082031-26.933594 26.933594 0 14.851562 12.082031 26.933594 26.933594 26.933594zm0-38.660157h161.074218c6.464844 0 11.722656 5.261719 11.722656 11.726563s-5.261718 11.726562-11.722656 11.726562h-161.074218c-6.464844 0-11.722657-5.261718-11.722657-11.726562s5.257813-11.726563 11.722657-11.726563zm0 0"/><path d="m276.859375 53.867188h99.765625c14.851562 0 26.933594-12.082032 26.933594-26.933594 0-14.851563-12.082032-26.933594-26.933594-26.933594h-99.765625c-14.851563 0-26.933594 12.082031-26.933594 26.933594 0 14.851562 12.082031 26.933594 26.933594 26.933594zm0-38.660157h99.765625c6.464844 0 11.722656 5.261719 11.722656 11.726563s-5.257812 11.726562-11.722656 11.726562h-99.765625c-6.464844 0-11.722656-5.261718-11.722656-11.726562s5.257812-11.726563 11.722656-11.726563zm0 0"/></svg>