<svg width="45" height="41" viewBox="0 0 45 41" fill="none" xmlns="http://www.w3.org/2000/svg">
<path d="M38.2264 11.4607C37.6354 7.67817 34.3563 4.77496 30.4102 4.77496C28.9257 4.77496 27.4992 5.18568 26.262 5.95173C24.3797 2.78837 20.9911 0.819885 17.2266 0.819885C11.4111 0.819885 6.67969 5.5513 6.67969 11.3668C6.67969 11.4028 6.67969 11.4401 6.68101 11.4762C2.94346 12.1057 0 15.3643 0 19.2769C0 23.6388 3.63612 27.1871 7.99805 27.1871H10.0404L8.7126 30.6735L11.1768 31.6108L12.8616 27.1871H17.9506L16.6228 30.6735L19.0869 31.6108L20.7717 27.1871H25.8608L24.5329 30.6735L26.9971 31.6108L28.6819 27.1871H33.7709L32.4431 30.6735L34.9073 31.6108L36.592 27.1871H37.002C41.3639 27.1871 45 23.6388 45 19.2769C45 15.3309 42.0089 12.0517 38.2264 11.4607Z" fill="white"/>
<path d="M10.7401 39.2405L13.0001 33.3048L15.4652 34.2434L13.2052 40.1791L10.7401 39.2405Z" fill="white"/>
<path d="M18.6509 39.2368L20.9109 33.3011L23.376 34.2396L21.116 40.1753L18.6509 39.2368Z" fill="white"/>
<path d="M26.5618 39.2329L28.8218 33.2972L31.2869 34.2358L29.0269 40.1715L26.5618 39.2329Z" fill="white"/>
</svg>
