<svg width="52" height="52" viewBox="0 0 52 52" fill="none" xmlns="http://www.w3.org/2000/svg">
<path d="M28.5312 26.8438V24.8331L30.6853 25.9097L31.4396 24.4002L29.3657 23.3633L30.6878 22.4816L29.7512 21.0776L27.6275 22.4934L26.0649 21.7121L28.9657 19.9714L28.0983 18.5244L24.2762 20.8177L22.6907 20.0246L25.5916 18.2839C25.8464 18.1312 26.0016 17.857 26.0008 17.56C26.0008 17.2638 25.8455 16.9887 25.5916 16.8369L22.6907 15.0962L24.277 14.3031L28.0992 16.5964L28.9666 15.1494L26.0657 13.4087L27.6275 12.6283L29.7512 14.0441L30.6878 12.6392L29.3657 11.7583L31.4396 10.7214L30.6853 9.21191L28.5312 10.2902V8.28125H26.8437V11.1348L25.1562 11.9786V8.28125H23.4687V12.8223L21.7803 13.6661V9.125C21.7803 8.81366 21.6099 8.52763 21.3357 8.38081C21.0606 8.234 20.7282 8.25087 20.4692 8.42216L16.7187 10.923V8.67613L21.4783 4.70966L20.3983 3.41281L16.7195 6.479V4.41266L19.0044 2.12778L17.8105 0.933875L16.7195 2.02569V0.6875H15.0312V2.02484L13.9402 0.933875L12.7463 2.12778L15.0312 4.41266V6.47984L11.3524 3.4145L10.2724 4.71134L15.0312 8.67613V10.923L11.279 8.42216C11.0208 8.25087 10.6901 8.23316 10.4133 8.38081C10.1391 8.52763 9.96784 8.81366 9.96784 9.125L9.96869 13.6661L8.28119 12.8223V8.28125H6.59369V11.9786L4.9045 11.134V8.28125H3.217V10.2902L1.06375 9.21359L0.309438 10.7231L2.38337 11.76L1.06037 12.6417L1.99694 14.0458L4.1215 12.6291L5.68497 13.4104L2.78331 15.1511L3.65069 16.5981L7.47372 14.3048L9.05912 15.0979L6.15831 16.8386C5.90519 16.9904 5.74994 17.2655 5.74994 17.5617C5.74909 17.8587 5.90519 18.1329 6.15916 18.2856L9.05912 20.0263L7.47287 20.8194L3.65069 18.5261L2.78331 19.9731L5.68328 21.7138L4.12066 22.4951L1.99778 21.0793L1.06122 22.4832L2.38253 23.365L0.308594 24.4019L1.06291 25.9114L3.21616 24.8348V26.8438H4.90366V23.9902L6.592 23.1464V26.8438H8.2795L8.28034 22.3018L9.96784 21.4581L9.967 26C9.967 26.3113 10.1383 26.5974 10.4125 26.7442C10.6892 26.8918 11.0208 26.875 11.2782 26.7028L15.0312 24.2011V26.448L10.2707 30.4145L11.3507 31.7113L15.0312 28.6435V30.7107L12.7455 32.9964L13.9394 34.1903L15.0312 33.0985V34.4367H16.7178V33.0993L17.8097 34.1903L19.0019 32.9964L16.7178 30.7132V28.6443L20.3966 31.7105L21.4766 30.4137L16.717 26.4472V24.2011L20.4675 26.702C20.6101 26.7957 20.7737 26.8438 20.9374 26.8438C21.0733 26.8438 21.21 26.81 21.3357 26.7433C21.6099 26.5965 21.7803 26.3105 21.7803 26V21.4581L23.4678 22.3018V26.8438H25.1553V23.1456L26.8437 23.9893V26.8438H28.5312ZM23.5159 17.5625L20.9003 19.1319L17.7607 17.5625L20.9003 15.9931L23.5159 17.5625ZM20.0928 10.7011V14.5098L16.7178 16.1973V12.9514L20.0928 10.7011ZM11.6553 10.7011L15.0312 12.9514V16.1973L11.6562 14.5098L11.6553 10.7011ZM8.23309 17.5625L10.8487 15.9923L13.9883 17.5617L10.8487 19.131L8.23309 17.5625ZM11.6553 24.423L11.6562 20.6143L15.0312 18.9268V22.1736L11.6553 24.423ZM20.0928 24.423L16.7178 22.1719V18.926L20.0928 20.6135V24.423Z" fill="#C7E2FC"/>
<path d="M50.9361 41.0458L49.9995 39.6409L47.6286 41.2213L45.5926 40.3488L47.4708 39.4097C47.756 39.2671 47.9374 38.9743 47.9366 38.6546C47.9366 38.3356 47.756 38.0428 47.47 37.9003L45.5926 36.9612L47.6286 36.0887L49.9995 37.6691L50.9361 36.2642L49.4806 35.2939L51.644 34.3666L50.9791 32.8158L48.7812 33.7583V31.9062H47.0937V34.4831L44.5624 35.5681L44.5616 32.7492C44.5616 32.469 44.4232 32.2075 44.192 32.0505C43.9608 31.8944 43.668 31.8632 43.4048 31.9653L40.3437 33.1896V30.7385L43.2512 29.2847L42.4969 27.7753L40.3428 28.8519V26H38.6562V28.8536L36.5004 27.7761L35.7461 29.2856L38.6562 30.7402V33.1913L35.5933 31.9662C35.3318 31.8632 35.0382 31.8944 34.8061 32.0514C34.5749 32.2083 34.4366 32.4699 34.4366 32.75V35.5681L31.9053 34.4831V31.9062H30.2178V33.7608L28.019 32.8183L27.3541 34.3692L29.5183 35.2964L28.0629 36.2667L28.9994 37.6716L31.3704 36.0912L33.4055 36.9637L31.5282 37.9028C31.2421 38.0454 31.0616 38.3382 31.0616 38.6571C31.0607 38.9769 31.2421 39.2688 31.5273 39.4122L33.4055 40.3513L31.3695 41.2238L28.9994 39.6434L28.0629 41.0474L29.5183 42.0178L27.355 42.945L28.0198 44.4958L30.2187 43.5534V45.4062H31.9062V42.8278L34.4374 41.7427V44.5625C34.4374 44.8426 34.5758 45.1042 34.807 45.2611C34.9479 45.3565 35.1141 45.4062 35.2803 45.4062C35.3858 45.4062 35.4921 45.386 35.5933 45.3455L38.6562 44.1204V46.5715L35.7469 48.0261L36.5012 49.5356L38.6562 48.4581V51.3117H40.3428V48.4581L42.4969 49.5347L43.2512 48.0252L40.3437 46.5715V44.1204L43.4048 45.3447C43.5052 45.386 43.6115 45.4062 43.717 45.4062C43.8832 45.4062 44.0494 45.3565 44.1912 45.2611C44.4223 45.1042 44.5607 44.8426 44.5607 44.5625L44.5616 41.7435L47.0928 42.8286V45.4062H48.7803V43.5517L50.9783 44.4942L51.6432 42.9433L49.4806 42.0161L50.9361 41.0458ZM45.2062 38.6562L43.5609 39.4789L41.6413 38.6562L43.5609 37.8336L45.2062 38.6562ZM42.8741 33.9954L42.8749 36.2904L40.3428 37.3754V35.0079L42.8741 33.9954ZM36.1232 33.9954L38.6562 35.0087V37.3763L36.1232 36.2904V33.9954ZM33.7911 38.6562L35.4364 37.8336L37.3559 38.6562L35.4364 39.4789L33.7911 38.6562ZM36.1232 43.3163V41.0204L38.6562 39.9345V42.3029L36.1232 43.3163ZM42.8741 43.3163L40.3428 42.3038V39.9354L42.8749 41.0204L42.8741 43.3163Z" fill="#C7E2FC"/>
<path d="M38.1009 12.7042L39.2948 13.8981L42.0311 11.161V15.0304H43.7178V11.1618L46.4532 13.8981L47.6471 12.7042L44.9117 9.96875H48.7803L48.7811 8.28125H44.9108L47.6471 5.54497L46.4532 4.35106L43.7178 7.08734V3.21875H42.0311V7.08819L39.2948 4.35106L38.1009 5.54497L40.8364 8.28125H36.9686L36.9678 9.96791H40.8364L38.1009 12.7042Z" fill="#C7E2FC"/>
<path d="M13.8971 39.295L12.7032 38.1011L9.96777 40.8373V36.9688H8.28112V40.8382L5.54484 38.1011L4.35093 39.295L7.08637 42.0312H3.21862L3.21777 43.7179H7.08637L4.35093 46.4542L5.54484 47.6481L8.28112 44.911V48.7804H9.96777V44.9118L12.7032 47.6481L13.8971 46.4542L11.1617 43.7188H15.0303L15.0311 42.0312H11.1608L13.8971 39.295Z" fill="#C7E2FC"/>
</svg>
