<svg id="Layer_3" enable-background="new 0 0 64 64" height="512" viewBox="0 0 64 64" width="512" xmlns="http://www.w3.org/2000/svg"><g><g fill="#c7e2fc"><path d="m35 33v-2.383l2.553 1.276.894-1.789-2.458-1.229 1.567-1.045-1.11-1.664-2.517 1.678-1.852-.926 3.438-2.063-1.028-1.715-4.53 2.718-1.879-.94 3.438-2.063c.302-.181.486-.506.485-.858 0-.351-.184-.677-.485-.857l-3.438-2.063 1.88-.94 4.53 2.718 1.028-1.715-3.438-2.063 1.851-.925 2.517 1.678 1.11-1.665-1.567-1.044 2.458-1.229-.894-1.789-2.553 1.278v-2.381h-2v3.382l-2 1v-4.382h-2v5.382l-2.001 1v-5.382c0-.369-.202-.708-.527-.882-.326-.174-.72-.154-1.027.049l-4.445 2.964v-2.663l5.641-4.701-1.28-1.537-4.36 3.634v-2.449l2.708-2.708-1.415-1.415-1.293 1.294v-1.586h-2.001v1.585l-1.293-1.293-1.415 1.415 2.708 2.708v2.45l-4.36-3.633-1.28 1.537 5.64 4.699v2.663l-4.447-2.964c-.306-.203-.698-.224-1.026-.049-.325.174-.528.513-.528.882l.001 5.382-2-1v-5.382h-2v4.382l-2.002-1.001v-3.381h-2v2.381l-2.552-1.276-.894 1.789 2.458 1.229-1.568 1.045 1.11 1.664 2.518-1.679 1.853.926-3.439 2.063 1.028 1.715 4.531-2.718 1.879.94-3.438 2.063c-.3.18-.484.506-.484.857-.001.352.184.677.485.858l3.437 2.063-1.88.94-4.53-2.718-1.028 1.715 3.437 2.063-1.852.926-2.516-1.678-1.11 1.664 1.566 1.045-2.458 1.229.894 1.789 2.552-1.276v2.381h2v-3.382l2.001-1v4.382h2l.001-5.383 2-1-.001 5.383c0 .369.203.708.528.882.328.175.721.155 1.026-.049l4.448-2.965v2.663l-5.642 4.701 1.28 1.537 4.362-3.636v2.45l-2.709 2.709 1.415 1.415 1.294-1.294v1.586h1.999v-1.585l1.294 1.293 1.413-1.415-2.707-2.706v-2.452l4.36 3.634 1.28-1.537-5.641-4.701v-2.662l4.445 2.964c.169.111.363.168.557.168.161 0 .323-.04.472-.119.325-.174.527-.513.527-.881v-5.383l2 1v5.383h2v-4.383l2.001 1v3.383zm-5.944-11-3.1 1.86-3.721-1.86 3.721-1.86zm-4.057-8.132v4.514l-4 2v-3.847zm-10 0 4.001 2.667v3.847l-4-2zm-4.056 8.132 3.1-1.861 3.721 1.86-3.721 1.86zm4.056 8.131.001-4.514 4-2v3.848zm10 0-4-2.668v-3.847l4 2z"/><path d="m61.554 49.832-1.11-1.665-2.81 1.873-2.413-1.034 2.226-1.113c.338-.169.553-.516.552-.895 0-.378-.214-.725-.553-.894l-2.225-1.113 2.413-1.034 2.81 1.873 1.11-1.665-1.725-1.15 2.564-1.099-.788-1.838-2.605 1.117v-2.195h-2v3.054l-3 1.286-.001-3.341c0-.332-.164-.642-.438-.828-.274-.185-.621-.222-.933-.101l-3.628 1.451v-2.905l3.446-1.723-.894-1.789-2.553 1.276v-3.38h-1.999v3.382l-2.555-1.277-.894 1.789 3.449 1.724v2.905l-3.63-1.452c-.31-.122-.658-.085-.933.101-.274.186-.438.496-.438.828v3.34l-3-1.286v-3.054h-2v2.198l-2.606-1.117-.788 1.838 2.565 1.099-1.725 1.15 1.11 1.665 2.81-1.873 2.412 1.034-2.225 1.113c-.339.169-.553.516-.553.894-.001.379.214.725.552.895l2.226 1.113-2.413 1.034-2.809-1.873-1.11 1.664 1.725 1.15-2.564 1.099.788 1.838 2.606-1.117v2.196h2v-3.056l3-1.286v3.342c0 .332.164.642.438.828.167.113.364.172.561.172.125 0 .251-.024.371-.072l3.63-1.452v2.905l-3.448 1.724.894 1.789 2.554-1.277v3.382h1.999v-3.382l2.553 1.276.894-1.789-3.446-1.723v-2.905l3.628 1.451c.119.049.245.073.37.073.197 0 .394-.059.562-.172.274-.186.438-.496.438-.828l.001-3.341 3 1.286v3.055h2v-2.198l2.605 1.117.788-1.838-2.563-1.099zm-6.791-2.832-1.95.975-2.275-.975 2.275-.975zm-2.764-5.524.001 2.72-3.001 1.286v-2.806zm-8.001 0 3.002 1.201v2.806l-3.002-1.287zm-2.764 5.524 1.95-.975 2.275.975-2.275.975zm2.764 5.523v-2.721l3.002-1.287v2.807zm8.001 0-3-1.2v-2.807l3.001 1.286z"/><path d="m46.342 16.242 1.415 1.415 3.243-3.244v4.586h1.999v-4.585l3.242 3.243 1.415-1.415-3.242-3.242h4.585l.001-2h-4.587l3.243-3.243-1.415-1.415-3.242 3.243v-4.585h-1.999v4.586l-3.243-3.244-1.415 1.415 3.242 3.243h-4.584l-.001 1.999h4.585z"/><path d="m17.656 47.757-1.415-1.415-3.242 3.243v-4.585h-1.999v4.586l-3.243-3.244-1.415 1.415 3.242 3.243h-4.584l-.001 1.999h4.585l-3.242 3.243 1.415 1.415 3.243-3.244v4.586h1.999v-4.585l3.242 3.243 1.415-1.415-3.242-3.242h4.585l.001-2h-4.587z"/></g><path d="m42 23.999c1.103 0 1.999-.897 1.999-2s-.896-2-1.999-2c-1.104 0-2 .897-2 2s.896 2 2 2z" fill="#a1cdfb"/><path d="m55 32c0 1.103.896 2 2 2 1.103 0 1.999-.897 1.999-2s-.896-2-1.999-2c-1.104 0-2 .896-2 2z" fill="#a1cdfb"/><path d="m27 50c-1.104 0-2 .897-2 2s.896 2 2 2c1.103 0 1.999-.897 1.999-2 0-1.104-.896-2-1.999-2z" fill="#a1cdfb"/><path d="m8.999 39c0-1.103-.896-2-1.999-2-1.104 0-2 .897-2 2s.896 2 2 2c1.103-.001 1.999-.898 1.999-2z" fill="#a1cdfb"/><path d="m43.565 20.77c-.366-.465-.928-.77-1.565-.77-1.104 0-2 .897-2 2 0 .575.247 1.089.636 1.454 1.418-.259 2.545-1.313 2.929-2.684z" fill="#c7e2fc"/><path d="m58.565 30.77c-.366-.465-.928-.77-1.565-.77-1.104 0-2 .897-2 2 0 .575.247 1.089.636 1.454 1.418-.259 2.545-1.313 2.929-2.684z" fill="#c7e2fc"/><path d="m28.565 50.77c-.366-.465-.928-.77-1.565-.77-1.104 0-2 .897-2 2 0 .575.247 1.089.636 1.454 1.418-.259 2.545-1.313 2.929-2.684z" fill="#c7e2fc"/><path d="m8.565 37.77c-.366-.465-.928-.77-1.565-.77-1.104 0-2 .897-2 2 0 .575.247 1.089.636 1.454 1.418-.259 2.545-1.313 2.929-2.684z" fill="#c7e2fc"/></g></svg>