<svg width="49" height="49" viewBox="0 0 49 49" fill="none" xmlns="http://www.w3.org/2000/svg">
<path d="M2.29816 30.0601C2.87363 30.0094 3.42928 29.7181 3.81382 29.2074C4.01192 28.9455 8.78589 22.7928 20.9502 21.7196C22.1262 21.6158 23.004 20.5379 22.9131 19.3119C22.8222 18.0859 21.797 17.1758 20.621 17.2795C6.43312 18.5314 0.678291 26.178 0.441043 26.5034C0.146468 26.9046 0.0028174 27.3749 4.20052e-05 27.8415C-0.00397753 28.5091 0.280548 29.1691 0.823951 29.6087C1.25978 29.9597 1.785 30.1054 2.29816 30.0601Z" fill="white"/>
<path d="M41.7839 14.4774C37.6756 14.4774 35.3369 17.1733 35.0826 17.48C34.3217 18.4033 34.4239 19.7812 35.2993 20.5882C36.1727 21.394 37.5151 21.3049 38.303 20.4054C38.355 20.3456 39.612 18.9318 41.7839 18.9318C43.4577 18.9318 44.7313 21.158 44.7313 22.2727C44.7313 24.9665 44.2519 27.8408 38.5365 27.8408C34.5032 27.8408 31.9852 27.259 29.5506 26.6968C27.2432 26.1649 24.8587 25.6136 21.4569 25.6136C15.802 25.6136 5.75728 30.3334 2.24928 38.019C1.74282 39.1305 2.19511 40.4594 3.26019 40.988C3.5562 41.1348 3.86887 41.2045 4.17521 41.2045C4.97357 41.2045 5.73852 40.7357 6.10536 39.9353C8.7171 34.2117 17.088 30.0682 21.4569 30.0682C24.3918 30.0682 26.3552 30.5218 28.6272 31.047C31.1639 31.6321 34.0362 32.2955 38.5364 32.2955C42.4446 32.2955 49 30.9937 49 22.2728C49 19.0938 46.1882 14.4774 41.7839 14.4774Z" fill="white"/>
<path d="M23.5517 33.409C13.0254 33.409 10.7514 41.3751 10.6597 41.7134C10.3428 42.8869 10.9932 44.094 12.1124 44.4399C13.2359 44.7814 14.4177 44.1136 14.7617 42.9489C14.8242 42.7411 16.3562 37.8637 23.5516 37.8637C30.7719 37.8637 34.059 40.1725 34.059 42.3182C34.059 44.5454 33.0981 44.5454 32.5812 44.5454C32.1726 44.5454 31.2054 43.8429 30.5989 43.1067C29.838 42.1692 28.4936 42.0474 27.589 42.8456C26.6906 43.6407 26.5781 45.0457 27.3388 45.9843C27.7495 46.4878 29.9214 49 32.5811 49C35.2324 49 38.3278 47.2502 38.3278 42.3182C38.3279 38.0114 34.4468 33.409 23.5517 33.409Z" fill="white"/>
<path d="M29.734 15.5909C35.5598 15.5909 42.5968 11.1712 42.5968 5.6835C42.5968 4.9198 42.4292 4.19033 42.1217 3.49783C42.7899 2.95191 43.4681 2.46226 44.1434 2.1099C44.6708 1.8348 44.8834 1.16589 44.6208 0.615689C44.3561 0.064338 43.7182 -0.156474 43.1888 0.117583C42.1732 0.647532 41.1613 1.41771 40.1913 2.29104C40.1415 2.32351 39.4025 3.01549 39.3773 3.04712C38.0897 4.36218 37.0065 5.83823 36.3082 7.29747V7.29851C36.0539 7.83357 35.3952 8.06744 34.8762 7.79662C34.6219 7.66392 34.4322 7.43559 34.3406 7.15276C34.2509 6.87109 34.2718 6.56873 34.3989 6.30345C35.1097 4.81675 36.1519 3.30406 37.4088 1.92939C37.7194 1.59227 37.7923 1.08874 37.5964 0.670083C37.3984 0.253516 36.9898 0.00347115 36.5271 0.0534801C31.5308 0.596166 27.6559 7.68574 27.6559 13.4225C27.6558 14.6176 28.5876 15.5909 29.734 15.5909Z" fill="white"/>
</svg>
