<?xml version="1.0" encoding="iso-8859-1"?>
<!-- Generator: Adobe Illustrator 19.0.0, SVG Export Plug-In . SVG Version: 6.00 Build 0)  -->
<svg version="1.1" id="Capa_1" xmlns="http://www.w3.org/2000/svg" xmlns:xlink="http://www.w3.org/1999/xlink" x="0px" y="0px"
	 viewBox="0 0 512 512" style="enable-background:new 0 0 512 512;" xml:space="preserve">
<g>
	<g>
		<g>
			<path d="M24.014,309.257c6.013-0.486,11.819-3.276,15.837-8.168c2.07-2.508,51.953-61.44,179.058-71.72
				c12.287-0.994,21.46-11.319,20.51-23.062s-11.662-20.46-23.95-19.466C67.22,198.832,7.088,272.073,4.609,275.19
				c-3.078,3.843-4.579,8.347-4.608,12.816c-0.042,6.395,2.931,12.717,8.609,16.927C13.164,308.295,18.652,309.691,24.014,309.257z"
				/>
			<path d="M436.599,160.001c-42.928,0-67.365,25.823-70.022,28.76c-7.95,8.844-6.882,22.042,2.265,29.771
				c9.126,7.719,23.152,6.865,31.385-1.75c0.544-0.573,13.678-14.115,36.372-14.115c17.489,0,30.797,21.323,30.797,32
				c0,25.802-5.009,53.333-64.729,53.333c-42.144,0-68.454-5.573-93.893-10.958c-24.11-5.094-49.026-10.375-84.571-10.375
				c-59.088,0-164.045,45.208-200.7,118.823c-5.292,10.646-0.566,23.375,10.563,28.438c3.093,1.406,6.36,2.073,9.561,2.073
				c8.342,0,16.335-4.49,20.168-12.156c27.29-54.823,114.757-94.51,160.408-94.51c30.666,0,51.182,4.344,74.922,9.375
				c26.506,5.604,56.518,11.958,103.541,11.958c40.837,0,109.334-12.469,109.334-96C512,204.219,482.619,160.001,436.599,160.001z"
				/>
			<path d="M246.091,341.334c-109.988,0-133.749,76.302-134.708,79.542c-3.311,11.24,3.485,22.802,15.18,26.115
				c11.739,3.271,24.088-3.125,27.682-14.281c0.653-1.99,16.661-48.708,91.845-48.708c75.445,0,109.792,22.115,109.792,42.667
				c0,21.333-10.04,21.333-15.442,21.333c-4.269,0-14.375-6.729-20.713-13.781c-7.95-8.979-21.998-10.146-31.45-2.5
				c-9.387,7.615-10.563,21.073-2.614,30.063c4.291,4.823,26.985,28.885,54.776,28.885c27.704,0,60.047-16.76,60.047-64
				C400.488,385.417,359.934,341.334,246.091,341.334z"/>
			<path d="M310.69,170.667c60.874,0,134.403-42.333,134.403-94.896c0-7.315-1.751-14.302-4.964-20.935
				c6.982-5.229,14.068-9.919,21.125-13.294c5.51-2.635,7.732-9.042,4.988-14.312c-2.766-5.281-9.431-7.396-14.963-4.771
				c-10.612,5.076-21.185,12.453-31.321,20.818c-0.52,0.311-8.242,6.939-8.505,7.242c-13.454,12.596-24.773,26.734-32.069,40.711
				v0.01c-2.657,5.125-9.54,7.365-14.963,4.771c-2.657-1.271-4.639-3.458-5.597-6.167c-0.937-2.698-0.719-5.594,0.61-8.135
				c7.427-14.24,18.317-28.729,31.45-41.896c3.245-3.229,4.007-8.052,1.96-12.062c-2.069-3.99-6.338-6.385-11.173-5.906
				c-52.206,5.198-92.695,73.104-92.695,128.052C288.975,161.344,298.711,170.667,310.69,170.667z"/>
		</g>
	</g>
</g>
<g>
</g>
<g>
</g>
<g>
</g>
<g>
</g>
<g>
</g>
<g>
</g>
<g>
</g>
<g>
</g>
<g>
</g>
<g>
</g>
<g>
</g>
<g>
</g>
<g>
</g>
<g>
</g>
<g>
</g>
</svg>
