<?xml version="1.0" encoding="iso-8859-1"?>
<!-- Generator: Adobe Illustrator 19.0.0, SVG Export Plug-In . SVG Version: 6.00 Build 0)  -->
<svg fill="#ffffff" version="1.1" id="Capa_1" xmlns="http://www.w3.org/2000/svg" xmlns:xlink="http://www.w3.org/1999/xlink" x="0px" y="0px"
	 viewBox="0 0 384.008 384.008" style="enable-background:new 0 0 384.008 384.008;" xml:space="preserve">
<g>
	<g>
		<path d="M383.14,173.184c0-0.008,0-0.024,0-0.04c0-0.008,0-0.016,0-0.032C373.492,74.424,291.34,0,192.052,0
			C92.716,0,10.54,74.424,0.884,173.112c0,0.016,0,0.032,0,0.048c0,0.008,0,0.016-0.008,0.024
			c-0.576,6.176-0.872,12.504-0.872,18.824c0,105.864,86.152,192,192.04,192c105.84,0,191.96-86.136,191.96-192
			C384.004,185.672,383.716,179.336,383.14,173.184z M192.052,32.008c79.816,0,146.336,57.696,158.16,135.568
			c-0.216,0.144-0.464,0.304-0.696,0.456c-0.76,0.504-1.592,1.032-2.496,1.584c-0.448,0.272-0.904,0.544-1.376,0.832
			c-1.088,0.64-2.288,1.312-3.56,2c-0.392,0.216-0.744,0.416-1.152,0.632c-1.728,0.904-3.608,1.832-5.656,2.768
			c-0.424,0.192-0.904,0.392-1.344,0.584c-1.672,0.744-3.44,1.496-5.312,2.24c-0.744,0.296-1.512,0.584-2.288,0.88
			c-1.808,0.688-3.72,1.36-5.712,2.024c-0.8,0.264-1.568,0.536-2.392,0.8c-2.84,0.904-5.816,1.784-9.008,2.616
			c-0.056,0.016-0.112,0.024-0.168,0.04c-3.088,0.8-6.384,1.536-9.808,2.232c-1.072,0.216-2.2,0.416-3.304,0.616
			c-2.568,0.48-5.224,0.92-7.968,1.328c-0.744,0.112-1.496,0.216-2.256,0.32c-0.08-0.392-0.208-0.776-0.296-1.168
			c-0.248-1.12-0.56-2.208-0.848-3.304c-0.456-1.76-0.944-3.504-1.496-5.216c-0.368-1.128-0.768-2.232-1.168-3.336
			c-0.6-1.64-1.232-3.256-1.912-4.848c-0.472-1.088-0.952-2.176-1.456-3.248c-0.744-1.56-1.528-3.096-2.352-4.608
			c-0.552-1.016-1.096-2.04-1.688-3.032c-0.904-1.528-1.872-3.008-2.856-4.488c-0.6-0.904-1.184-1.816-1.816-2.696
			c-1.144-1.584-2.36-3.104-3.6-4.616c-0.568-0.688-1.088-1.416-1.672-2.088c-1.856-2.144-3.792-4.208-5.832-6.176
			c-0.2-0.2-0.432-0.368-0.632-0.56c-1.848-1.752-3.76-3.44-5.752-5.04c-0.768-0.616-1.576-1.176-2.368-1.768
			c-1.48-1.12-2.968-2.232-4.512-3.264c-0.944-0.632-1.92-1.208-2.888-1.808c-1.464-0.904-2.936-1.792-4.448-2.616
			c-1.048-0.568-2.12-1.104-3.192-1.632c-1.512-0.752-3.04-1.472-4.592-2.144c-1.112-0.48-2.24-0.944-3.376-1.384
			c-1.592-0.616-3.208-1.176-4.832-1.712c-1.152-0.376-2.296-0.752-3.464-1.08c-1.712-0.488-3.456-0.896-5.208-1.296
			c-1.128-0.256-2.248-0.536-3.392-0.752c-1.952-0.368-3.936-0.624-5.928-0.872c-0.984-0.12-1.96-0.296-2.952-0.384
			c-3-0.28-6.04-0.44-9.12-0.44s-6.12,0.168-9.128,0.44c-0.992,0.088-1.952,0.264-2.936,0.384c-2,0.248-3.992,0.512-5.952,0.872
			c-1.136,0.216-2.248,0.488-3.376,0.744c-1.76,0.392-3.512,0.808-5.24,1.296c-1.16,0.328-2.288,0.696-3.432,1.072
			c-1.648,0.536-3.28,1.104-4.888,1.728c-1.12,0.432-2.224,0.888-3.32,1.36c-1.584,0.68-3.136,1.416-4.68,2.176
			c-1.048,0.52-2.088,1.04-3.112,1.592c-1.552,0.84-3.056,1.744-4.544,2.664c-0.936,0.584-1.888,1.144-2.808,1.752
			c-1.592,1.064-3.12,2.2-4.64,3.352c-0.744,0.568-1.52,1.096-2.248,1.68c-2.072,1.664-4.064,3.416-5.992,5.248
			c-0.128,0.128-0.272,0.232-0.408,0.36c-2.056,1.976-4,4.056-5.872,6.216c-0.544,0.632-1.032,1.304-1.56,1.944
			c-1.272,1.552-2.536,3.12-3.712,4.752c-0.616,0.856-1.184,1.752-1.776,2.632c-1,1.496-1.984,3-2.904,4.552
			c-0.576,0.976-1.112,1.976-1.656,2.976c-0.832,1.536-1.632,3.08-2.384,4.664c-0.504,1.056-0.976,2.128-1.44,3.208
			c-0.688,1.6-1.328,3.232-1.928,4.88c-0.4,1.104-0.8,2.2-1.16,3.32c-0.552,1.712-1.04,3.464-1.504,5.224
			c-0.288,1.104-0.6,2.192-0.848,3.312c-0.088,0.4-0.216,0.776-0.304,1.176c-0.752-0.104-1.504-0.208-2.24-0.32
			c-2.76-0.408-5.432-0.856-8.016-1.336c-1.096-0.208-2.216-0.4-3.28-0.616c-3.464-0.704-6.808-1.448-9.928-2.256
			c-0.024-0.008-0.04-0.008-0.064-0.016c-3.192-0.824-6.152-1.712-8.992-2.608c-0.848-0.272-1.648-0.552-2.472-0.824
			c-1.96-0.656-3.856-1.328-5.64-2c-0.784-0.296-1.576-0.592-2.328-0.896c-1.872-0.744-3.64-1.496-5.312-2.24
			c-0.432-0.192-0.904-0.384-1.32-0.576c-2.04-0.936-3.92-1.864-5.64-2.768c-0.416-0.216-0.776-0.424-1.168-0.64
			c-1.272-0.688-2.48-1.36-3.568-2c-0.448-0.264-0.872-0.52-1.288-0.776c-0.976-0.6-1.888-1.176-2.696-1.712
			c-0.176-0.12-0.376-0.248-0.544-0.36C45.628,89.704,112.18,32.008,192.052,32.008z M255.852,209.792
			c0,35.184-28.624,63.824-63.808,63.824c-35.224,0-63.888-28.632-63.888-63.824l0.008-1.048c0.04-0.368,0.064-0.744,0.072-1.12
			c1.072-34.584,29.104-61.672,63.808-61.672c34.656,0,62.648,27.088,63.728,61.672c0.008,0.208,0.048,0.808,0.064,1.016
			C255.868,209.024,255.852,209.408,255.852,209.792z M192.052,352.008c-84.376,0-153.712-65.616-159.632-148.496
			c0.656,0.32,1.4,0.64,2.08,0.96c0.896,0.416,1.784,0.832,2.728,1.256c1.176,0.528,2.424,1.04,3.672,1.568
			c0.968,0.408,1.912,0.808,2.928,1.208c1.352,0.536,2.784,1.064,4.216,1.584c1.024,0.376,2.008,0.752,3.064,1.12
			c1.584,0.552,3.264,1.08,4.936,1.616c1.016,0.328,1.984,0.656,3.032,0.976c2.176,0.656,4.472,1.28,6.792,1.896
			c0.632,0.168,1.216,0.352,1.856,0.512c2.992,0.76,6.112,1.488,9.344,2.16c0.976,0.208,2.032,0.376,3.032,0.576
			c2.312,0.456,4.624,0.904,7.048,1.304c1.368,0.224,2.824,0.408,4.224,0.616c1.832,0.272,3.616,0.568,5.512,0.808
			c0.192,1.528,0.512,3.008,0.776,4.512c0.2,1.168,0.36,2.352,0.6,3.504c0.44,2.08,1.008,4.104,1.584,6.128
			c0.256,0.896,0.448,1.816,0.728,2.704c0.912,2.888,1.944,5.72,3.112,8.488c0.112,0.264,0.256,0.504,0.368,0.768
			c1.08,2.488,2.248,4.936,3.528,7.304c0.48,0.896,1.04,1.736,1.544,2.616c0.984,1.696,1.968,3.392,3.056,5.016
			c0.656,0.992,1.384,1.928,2.08,2.888c1.04,1.44,2.072,2.88,3.192,4.264c0.792,0.976,1.632,1.904,2.456,2.848
			c1.128,1.288,2.256,2.56,3.448,3.784c0.896,0.92,1.832,1.8,2.768,2.688c1.216,1.152,2.44,2.28,3.712,3.368
			c1,0.848,2.016,1.672,3.048,2.48c1.304,1.024,2.624,2.016,3.976,2.976c1.08,0.76,2.168,1.504,3.28,2.216
			c1.4,0.904,2.824,1.76,4.264,2.592c1.144,0.656,2.28,1.304,3.448,1.912c1.496,0.784,3.032,1.504,4.576,2.208
			c1.184,0.544,2.368,1.088,3.576,1.576c1.608,0.656,3.248,1.224,4.896,1.792c1.216,0.416,2.416,0.856,3.648,1.232
			c1.752,0.528,3.536,0.944,5.328,1.376c1.184,0.28,2.344,0.608,3.544,0.84c2.016,0.4,4.072,0.664,6.128,0.936
			c1.024,0.136,2.016,0.328,3.048,0.432c3.104,0.304,6.256,0.48,9.44,0.48c3.184,0,6.328-0.176,9.432-0.48
			c1.032-0.096,2.024-0.296,3.048-0.432c2.056-0.272,4.112-0.544,6.128-0.936c1.192-0.24,2.352-0.56,3.536-0.84
			c1.792-0.424,3.584-0.848,5.328-1.376c1.232-0.368,2.424-0.808,3.64-1.224c1.648-0.568,3.288-1.144,4.896-1.792
			c1.208-0.496,2.384-1.04,3.568-1.576c1.544-0.704,3.072-1.424,4.576-2.208c1.168-0.608,2.304-1.248,3.44-1.904
			c1.448-0.832,2.88-1.696,4.28-2.6c1.104-0.712,2.184-1.448,3.256-2.2c1.36-0.96,2.688-1.96,3.992-2.992
			c1.024-0.808,2.04-1.616,3.024-2.464c1.28-1.096,2.512-2.232,3.728-3.392c0.928-0.88,1.856-1.752,2.744-2.672
			c1.2-1.232,2.336-2.52,3.464-3.816c0.816-0.936,1.648-1.848,2.432-2.816c1.128-1.392,2.168-2.848,3.224-4.304
			c0.68-0.952,1.4-1.872,2.048-2.848c1.096-1.648,2.088-3.36,3.088-5.072c0.496-0.856,1.04-1.68,1.512-2.56
			c1.296-2.408,2.48-4.888,3.576-7.408c0.096-0.224,0.224-0.44,0.32-0.664c1.168-2.768,2.2-5.6,3.112-8.488
			c0.28-0.888,0.472-1.808,0.728-2.704c0.568-2.024,1.136-4.04,1.576-6.112c0.248-1.168,0.408-2.368,0.608-3.552
			c0.256-1.496,0.584-2.96,0.768-4.48c1.656-0.208,3.2-0.472,4.8-0.704c1.584-0.232,3.208-0.44,4.744-0.696
			c1.992-0.328,3.888-0.696,5.808-1.064c1.392-0.264,2.832-0.504,4.184-0.792c2.04-0.424,3.976-0.896,5.928-1.352
			c1.104-0.264,2.272-0.504,3.344-0.776c2.576-0.656,5.04-1.344,7.448-2.048c0.368-0.104,0.776-0.208,1.144-0.312
			c2.752-0.824,5.384-1.672,7.912-2.544c0.776-0.272,1.48-0.552,2.24-0.824c1.704-0.616,3.408-1.224,5-1.848
			c0.896-0.352,1.704-0.704,2.568-1.056c1.368-0.56,2.744-1.12,4.032-1.688c0.856-0.376,1.64-0.752,2.464-1.136
			c0.952-0.44,1.96-0.88,2.864-1.32C345.684,286.392,276.388,352.008,192.052,352.008z"/>
	</g>
</g>
<g>
	<g>
		<path d="M192.012,158.696c-28.16,0-51.064,22.92-51.064,51.096c0,28.168,22.912,51.08,51.064,51.08
			c28.16,0,51.072-22.912,51.072-51.08C243.092,181.616,220.18,158.696,192.012,158.696z M192.012,228.864
			c-10.512,0-19.064-8.552-19.064-19.08c0-10.528,8.552-19.096,19.064-19.096c10.52,0,19.072,8.56,19.072,19.096
			C211.092,220.312,202.532,228.864,192.012,228.864z"/>
	</g>
</g>
</svg>
